<svg xmlns="http://www.w3.org/2000/svg" width="778" height="484" preserveAspectRatio="xMidYMax meet" viewBox="0 0 778 484"><rect width="778" height="484" fill="#ffffff" x="0" y="0" /><svg width="726" height="432" viewBox="0 0 726 432" x="26" y="26"><path stroke="#000000" stroke-width="12" d="M6 432L6 0M228 432L228 0M306 432L306 0M336 432L336 0M432 432L432 0M582 432L582 0M630 432L630 0M666 432L666 0M732 432L732 0"/><path stroke="#000000" stroke-width="6" d="M21 432L21 0M99 432L99 0M111 432L111 0M135 432L135 0M153 432L153 0M267 432L267 0M357 432L357 0M387 432L387 0M453 432L453 0M465 432L465 0M531 432L531 0M597 432L597 0M651 432L651 0M717 432L717 0"/><path stroke="#000000" stroke-width="18" d="M45 432L45 0M207 432L207 0M249 432L249 0M285 432L285 0M405 432L405 0M513 432L513 0M555 432L555 0M699 432L699 0"/><path stroke="#000000" stroke-width="24" d="M78 432L78 0M174 432L174 0M486 432L486 0"/></svg><desc>Barcode generated at https://orcascan.com</desc></svg>